<?xml version="1.0" encoding="UTF-8" standalone="no"?>
<svg
   enable-background="new 0 0 580 580"
   height="580"
   viewBox="0 0 580 580"
   width="580"
   version="1.1"
   id="svg264"
   sodipodi:docname="Thermal.svg"
   xml:space="preserve"
   inkscape:version="1.2.2 (732a01da63, 2022-12-09)"
   xmlns:inkscape="http://www.inkscape.org/namespaces/inkscape"
   xmlns:sodipodi="http://sodipodi.sourceforge.net/DTD/sodipodi-0.dtd"
   xmlns="http://www.w3.org/2000/svg"
   xmlns:svg="http://www.w3.org/2000/svg"><defs
     id="defs268"><style
       id="style656">.cls-1{fill:none;stroke:#020202;stroke-miterlimit:10;stroke-width:1.92px;}</style></defs><sodipodi:namedview
     id="namedview266"
     pagecolor="#ffffff"
     bordercolor="#000000"
     borderopacity="0.25"
     inkscape:showpageshadow="2"
     inkscape:pageopacity="0.0"
     inkscape:pagecheckerboard="0"
     inkscape:deskcolor="#d1d1d1"
     showgrid="false"
     inkscape:zoom="0.8917723"
     inkscape:cx="43.172456"
     inkscape:cy="214.74092"
     inkscape:window-width="1920"
     inkscape:window-height="1001"
     inkscape:window-x="-9"
     inkscape:window-y="-9"
     inkscape:window-maximized="1"
     inkscape:current-layer="g488" /><g
     style="fill:#000000"
     id="g366"
     transform="matrix(34.565568,0,0,34.38461,-118.61762,-99.944002)"><g
       style="fill:#000000"
       id="g488"
       transform="matrix(0.03069407,0,0,0.04401928,3.8304095,-0.27440731)"><g
         id="g745"
         transform="matrix(0.96490822,0,0,0.6775382,4.2276593,92.55264)">
	<g
   id="g743">
		<g
   id="g741">
			<path
   style="fill:#010101"
   d="M 510.568,481.343 447.47,323.597 v -108.79 c 0,-11.967 -9.791,-21.758 -21.758,-21.758 h -98.999 c -11.967,0 -21.758,9.791 -21.758,21.758 v 108.79 L 297.069,343.64 265.79,264.85 V 114.719 c 0,-11.967 -9.791,-21.758 -21.758,-21.758 h -134.9 c -11.967,0 -21.758,9.791 -21.758,21.758 V 265.938 L 1.429,482.431 c -2.176,6.527 -2.176,14.143 2.176,19.582 3.264,6.527 10.879,9.791 17.406,9.791 h 240.427 69.626 157.746 c 7.615,0 14.143,-3.264 19.582,-10.879 4.352,-5.439 4.352,-13.055 2.176,-19.582 z M 128.714,277.905 c 1.088,-2.176 1.088,-5.44 1.088,-7.615 V 136.477 h 92.472 V 270.29 c 0,2.176 0,5.44 1.088,7.615 l 75.721,190.383 h -37.644 c -2.359,0 -4.63,0.386 -6.762,1.088 H 51.473 Z m 217.838,190.383 -26.776,-67.448 26.519,-65.277 c 1.088,-2.176 1.088,-5.44 1.088,-7.615 v -91.384 h 56.571 v 91.384 c 0,2.176 0,5.44 1.088,7.615 l 52.219,132.724 H 346.552 Z"
   id="path735" />
			<path
   style="fill:#010101"
   d="m 178.757,67.94 c 2.176,0 5.44,0 8.703,-3.264 7.615,-2.176 11.967,-8.703 13.055,-16.319 h 1.088 c 6.527,-2.176 16.319,-2.176 28.286,-2.176 3.264,1.088 7.615,1.088 10.879,1.088 8.703,1.088 17.406,1.088 26.11,1.088 9.791,-1.088 19.582,-2.176 28.285,-3.264 7.615,-1.088 15.231,-2.176 22.846,-2.176 13.055,0 25.022,1.088 38.077,2.176 l 48.956,5.44 C 415.921,51.621 426.8,42.918 427.888,30.951 428.976,20.072 420.273,9.193 408.306,8.105 L 359.35,2.665 c -14.143,-1.088 -29.373,-3.264 -44.604,-2.176 -8.703,1.088 -17.406,2.176 -26.11,3.264 -8.703,1.088 -16.319,2.176 -23.934,2.176 -7.615,0 -15.231,0 -22.846,-1.088 -3.264,-1.088 -7.615,-1.088 -11.967,-1.088 -17.406,-1.088 -31.549,1.088 -42.428,4.352 -13.055,4.352 -22.846,13.055 -27.198,22.846 -4.352,7.615 -4.352,16.319 -1.088,23.934 3.264,7.615 10.879,13.055 19.582,13.055 z"
   id="path737" />
			<path
   style="fill:#010101"
   d="m 360.437,146.269 c -3.264,10.879 3.264,22.846 14.143,26.11 2.176,1.088 4.352,1.088 6.527,1.088 8.703,0 17.406,-5.44 20.67,-16.319 1.088,-4.352 8.703,-5.44 13.055,-5.44 4.352,1.088 9.791,2.176 15.231,3.264 8.703,2.176 18.494,4.352 29.373,4.352 4.352,0 7.615,-1.088 11.967,-1.088 4.352,0 8.703,-1.088 10.879,0 10.879,4.352 22.846,-1.088 27.198,-11.967 4.352,-10.879 -1.088,-22.846 -11.967,-27.198 -11.967,-4.352 -22.846,-3.264 -31.549,-2.176 -2.176,1.088 -5.44,1.088 -7.615,1.088 -5.44,0 -11.967,-1.088 -18.494,-3.264 -6.527,-2.176 -14.143,-3.264 -21.758,-4.352 -27.198,-2.175 -51.132,11.968 -57.66,35.902 z"
   id="path739" />
		</g>
	</g>
</g></g></g><style
     type="text/css"
     id="style529">
<![CDATA[
	.st0{fill:#000000;}
]]>
</style></svg>
