<?xml version="1.0" encoding="UTF-8" standalone="no"?>
<svg
   enable-background="new 0 0 580 580"
   height="580"
   viewBox="0 0 580 580"
   width="580"
   version="1.1"
   id="svg264"
   sodipodi:docname="Hydro.svg"
   xml:space="preserve"
   inkscape:version="1.2.2 (732a01da63, 2022-12-09)"
   xmlns:inkscape="http://www.inkscape.org/namespaces/inkscape"
   xmlns:sodipodi="http://sodipodi.sourceforge.net/DTD/sodipodi-0.dtd"
   xmlns="http://www.w3.org/2000/svg"
   xmlns:svg="http://www.w3.org/2000/svg"><defs
     id="defs268" /><sodipodi:namedview
     id="namedview266"
     pagecolor="#ffffff"
     bordercolor="#000000"
     borderopacity="0.25"
     inkscape:showpageshadow="2"
     inkscape:pageopacity="0.0"
     inkscape:pagecheckerboard="0"
     inkscape:deskcolor="#d1d1d1"
     showgrid="false"
     inkscape:zoom="0.8917723"
     inkscape:cx="43.172456"
     inkscape:cy="213.61955"
     inkscape:window-width="1920"
     inkscape:window-height="1001"
     inkscape:window-x="-9"
     inkscape:window-y="-9"
     inkscape:window-maximized="1"
     inkscape:current-layer="g488" /><g
     style="fill:#000000"
     id="g366"
     transform="matrix(34.565568,0,0,34.38461,-118.61762,-99.944002)"><g
       style="fill:#000000"
       id="g488"
       transform="matrix(0.03069407,0,0,0.04401928,3.8304095,-0.27440731)"><g
         id="g535"
         transform="matrix(0.8697505,0,0,0.72121147,32.285448,80.630218)">
	<path
   class="st0"
   d="M 391.703,195.531 391.5,195.187 391.234,194.812 256,0 120.516,195.156 l -0.234,0.375 C 93.11,238.25 74.673,287.64 74.579,337.281 c -0.016,21.328 3.5,42.688 11.438,63.063 7.906,20.375 20.281,39.688 37.313,56.719 h 0.016 c 36.56,36.578 84.717,54.968 132.654,54.937 47.938,0.031 96.078,-18.359 132.656,-54.938 l -15.859,15.859 15.859,-15.859 c 17.047,-17.031 29.422,-36.344 37.328,-56.703 7.938,-20.391 11.438,-41.75 11.438,-63.063 -0.094,-49.655 -18.531,-99.046 -45.719,-141.765 z m -7.562,188.547 c -5.719,14.672 -14.453,28.438 -27.219,41.234 l 15.875,-15.875 -15.875,15.875 C 329,453.219 292.609,467.078 256,467.109 219.391,467.078 183,453.218 155.078,425.312 v 0 c -12.781,-12.797 -21.5,-26.563 -27.234,-41.25 -5.703,-14.672 -8.375,-30.344 -8.375,-46.781 C 119.36,299.203 134.328,256.953 158,219.906 l 98,-141.188 98.031,141.219 c 23.641,37.047 38.594,79.281 38.5,117.359 0,16.438 -2.672,32.11 -8.39,46.782 z"
   id="path531" />
	<path
   class="st0"
   d="m 205.328,237.781 c -23.422,26.031 -60.719,94.547 -37.297,142.25 26.156,53.281 61.75,21.609 45.109,-12.125 -32.093,-65.062 -7.812,-130.125 -7.812,-130.125 z"
   id="path533" />
</g></g></g><style
     type="text/css"
     id="style529">
<![CDATA[
	.st0{fill:#000000;}
]]>
</style></svg>
