<?xml version="1.0" encoding="UTF-8" standalone="no"?>
<svg
   enable-background="new 0 0 580 580"
   height="580"
   viewBox="0 0 580 580"
   width="580"
   version="1.1"
   id="svg264"
   sodipodi:docname="Wind_power.svg"
   xml:space="preserve"
   inkscape:version="1.2.2 (732a01da63, 2022-12-09)"
   xmlns:inkscape="http://www.inkscape.org/namespaces/inkscape"
   xmlns:sodipodi="http://sodipodi.sourceforge.net/DTD/sodipodi-0.dtd"
   xmlns="http://www.w3.org/2000/svg"
   xmlns:svg="http://www.w3.org/2000/svg"><defs
     id="defs268" /><sodipodi:namedview
     id="namedview266"
     pagecolor="#ffffff"
     bordercolor="#000000"
     borderopacity="0.25"
     inkscape:showpageshadow="2"
     inkscape:pageopacity="0.0"
     inkscape:pagecheckerboard="0"
     inkscape:deskcolor="#d1d1d1"
     showgrid="false"
     inkscape:zoom="0.8917723"
     inkscape:cx="43.172456"
     inkscape:cy="213.61955"
     inkscape:window-width="1920"
     inkscape:window-height="1001"
     inkscape:window-x="-9"
     inkscape:window-y="-9"
     inkscape:window-maximized="1"
     inkscape:current-layer="g366" /><g
     style="fill:#000000"
     id="g366"
     transform="matrix(34.565568,0,0,34.38461,-118.61762,-99.944002)"><path
       fill-rule="evenodd"
       clip-rule="evenodd"
       d="m 11.916251,3.9347753 c 0,-0.27614 -0.2239,-0.5 -0.5,-0.5 -0.2762,0 -0.5,0.22386 -0.5,0.5 v 4.58535 c -0.5826,0.20592 -0.9999999,0.76154 -0.9999999,1.41465 0,0.0373 0.0013,0.0742 0.004,0.1107997 l -4.25412,2.4562 c -0.23914,0.138 -0.32108,0.4438 -0.18301,0.683 0.13807,0.2391 0.44387,0.3211 0.68301,0.183 l 4.1605199,-2.4021 c 0.1617,0.1709 0.3632,0.3037 0.5896,0.3837 v 7.0854 h -0.5 c -0.2762,0 -0.4999999,0.2239 -0.4999999,0.5 0,0.2761 0.2237999,0.5 0.4999999,0.5 h 2 c 0.2761,0 0.5,-0.2239 0.5,-0.5 0,-0.2761 -0.2239,-0.5 -0.5,-0.5 h -0.5 v -7.0854 c 0.1981,-0.07 0.3771,-0.1805 0.5272,-0.3215 l 4.0528,2.3399 c 0.2392,0.1381 0.545,0.0562 0.683,-0.183 0.1381,-0.2391 0.0562,-0.5449 -0.183,-0.683 l -4.0937,-2.3635 c 0.009,-0.0665 0.0137,-0.1345 0.0137,-0.2034997 0,-0.65311 -0.4174,-1.20873 -1,-1.41465 z m -0.5,5.5 c -0.2762,0 -0.5,0.22386 -0.5,0.5 0,0.2760997 0.2238,0.4999997 0.5,0.4999997 0.2761,0 0.5,-0.2239 0.5,-0.4999997 0,-0.27614 -0.2239,-0.5 -0.5,-0.5 z"
       fill="#47495f"
       id="path357"
       style="fill:#000000" /></g></svg>
